<?xml version="1.0" encoding="utf-8"?><!DOCTYPE svg PUBLIC "-//W3C//DTD SVG 1.1//EN" "http://www.w3.org/Graphics/SVG/1.1/DTD/svg11.dtd"><svg version="1.1" xmlns="http://www.w3.org/2000/svg" xmlns:xlink="http://www.w3.org/1999/xlink" width="20" height="20" viewBox="0 0 20 20" data-tags="servers"><g fill="#444" transform="scale(0.01953125 0.01953125)"><path d="M0 102.4c0-56.32 46.080-102.4 102.4-102.4h819.2c56.554 0 102.4 45.846 102.4 102.4v0 102.4c0 56.554-45.846 102.4-102.4 102.4v0h-819.2c-56.554 0-102.4-45.846-102.4-102.4v0-102.4zM0 460.8c0-56.32 46.080-102.4 102.4-102.4h819.2c56.554 0 102.4 45.846 102.4 102.4v0 102.4c0 56.554-45.846 102.4-102.4 102.4v0h-819.2c-56.554 0-102.4-45.846-102.4-102.4v0-102.4zM0 819.2c0-56.32 46.080-102.4 102.4-102.4h819.2c56.554 0 102.4 45.846 102.4 102.4v0 102.4c0 56.554-45.846 102.4-102.4 102.4v0h-819.2c-56.554 0-102.4-45.846-102.4-102.4v0-102.4zM614.4 102.4v102.4h102.4v-102.4h-102.4zM819.2 102.4v102.4h102.4v-102.4h-102.4zM614.4 460.8v102.4h102.4v-102.4h-102.4zM819.2 460.8v102.4h102.4v-102.4h-102.4zM614.4 819.2v102.4h102.4v-102.4h-102.4zM819.2 819.2v102.4h102.4v-102.4h-102.4z" /></g></svg>